<svg width="1200" height="680" xmlns="http://www.w3.org/2000/svg">
<defs><radialGradient id="mg" cx="50%" cy="50%"><stop offset="0%" stop-color="#1e3560"/><stop offset="100%" stop-color="#0e1e30"/></radialGradient><filter id="glow"><feGaussianBlur stdDeviation="3" result="blur"/><feMerge><feMergeNode in="blur"/><feMergeNode in="SourceGraphic"/></feMerge></filter></defs>
<rect x="0" y="0" width="1200" height="680" fill="#0f172a" rx="0"/>
<rect x="0" y="0" width="1200" height="48" fill="#0c1527" rx="0"/>
<rect x="0" y="48" width="1200" height="1" fill="#1e3a5f" rx="0"/>
<text x="16" y="30" fill="#e2e8f0" font-size="18" font-family="'Segoe UI',Arial,sans-serif" text-anchor="start" font-weight="normal">📡</text>
<text x="42" y="31" fill="#38bdf8" font-size="16" font-family="'Segoe UI',monospace,sans-serif" text-anchor="start" font-weight="bold">APRS Net</text>
<rect x="138" y="11" width="80" height="26" fill="#1e3a5f" rx="13"/>
<rect x="138" y="11" width="80" height="26" fill="#60a5fa" rx="13" opacity="0.0" stroke="#60a5fa" stroke-width="1"/>
<rect x="138" y="11" width="80" height="26" rx="13" fill="none" stroke="#60a5fa" stroke-width="1"/>
<text x="178" y="29" fill="#60a5fa" font-size="12" font-family="'Segoe UI',Arial,sans-serif" text-anchor="middle" font-weight="bold">2E0LXY</text>
<circle cx="250" cy="24" r="6" fill="#4ade80"/>
<text x="262" y="28" fill="#94a3b8" font-size="11" font-family="'Segoe UI',Arial,sans-serif" text-anchor="start" font-weight="normal">Connected</text>
<rect x="850" y="10" width="105" height="28" fill="#1e293b" rx="4"/>
<text x="858" y="28" fill="#94a3b8" font-size="10" font-family="'Segoe UI',Arial,sans-serif" text-anchor="start" font-weight="normal">RX:</text>
<text x="947" y="28" fill="#38bdf8" font-size="11" font-family="'Segoe UI',Arial,sans-serif" text-anchor="end" font-weight="bold">124,837</text>
<rect x="965" y="10" width="105" height="28" fill="#1e293b" rx="4"/>
<text x="973" y="28" fill="#94a3b8" font-size="10" font-family="'Segoe UI',Arial,sans-serif" text-anchor="start" font-weight="normal">Stations:</text>
<text x="1062" y="28" fill="#4ade80" font-size="11" font-family="'Segoe UI',Arial,sans-serif" text-anchor="end" font-weight="bold">412</text>
<rect x="1080" y="10" width="105" height="28" fill="#1e293b" rx="4"/>
<text x="1088" y="28" fill="#94a3b8" font-size="10" font-family="'Segoe UI',Arial,sans-serif" text-anchor="start" font-weight="normal">Upstream:</text>
<text x="1177" y="28" fill="#4ade80" font-size="11" font-family="'Segoe UI',Arial,sans-serif" text-anchor="end" font-weight="bold">●</text>
<rect x="0" y="49" width="272" height="631" fill="#162032" rx="0"/>
<rect x="272" y="49" width="1" height="631" fill="#1e3a5f" rx="0"/>
<text x="14" y="80" fill="#e2e8f0" font-size="13" font-family="'Segoe UI',Arial,sans-serif" text-anchor="start" font-weight="600">Station Filters</text>
<rect x="12" y="96" width="248" height="28" fill="#1e293b" rx="4"/>
<circle cx="26" cy="110" r="5" fill="#3b82f6"/>
<rect x="224" y="102" width="16" height="16" fill="none" rx="3" stroke="#38bdf8" stroke-width="1.5"/>
<text x="226" y="114" fill="#38bdf8" font-size="11" font-family="'Segoe UI',Arial,sans-serif" text-anchor="start" font-weight="bold">✓</text>
<text x="36" y="114" fill="#e2e8f0" font-size="11" font-family="'Segoe UI',Arial,sans-serif" text-anchor="start" font-weight="normal">Ham / APRS</text>
<text x="250" y="114" fill="#94a3b8" font-size="10" font-family="'Segoe UI',Arial,sans-serif" text-anchor="end" font-weight="normal">412</text>
<rect x="12" y="130" width="248" height="28" fill="#1e293b" rx="4"/>
<circle cx="26" cy="144" r="5" fill="#22c55e"/>
<rect x="224" y="136" width="16" height="16" fill="none" rx="3" stroke="#38bdf8" stroke-width="1.5"/>
<text x="226" y="148" fill="#38bdf8" font-size="11" font-family="'Segoe UI',Arial,sans-serif" text-anchor="start" font-weight="bold">✓</text>
<text x="36" y="148" fill="#e2e8f0" font-size="11" font-family="'Segoe UI',Arial,sans-serif" text-anchor="start" font-weight="normal">CWOP Weather</text>
<text x="250" y="148" fill="#94a3b8" font-size="10" font-family="'Segoe UI',Arial,sans-serif" text-anchor="end" font-weight="normal">38</text>
<rect x="12" y="164" width="248" height="28" fill="#1e293b" rx="4"/>
<circle cx="26" cy="178" r="5" fill="#f97316"/>
<rect x="224" y="170" width="16" height="16" fill="none" rx="3" stroke="#38bdf8" stroke-width="1.5"/>
<text x="226" y="182" fill="#38bdf8" font-size="11" font-family="'Segoe UI',Arial,sans-serif" text-anchor="start" font-weight="bold">✓</text>
<text x="36" y="182" fill="#e2e8f0" font-size="11" font-family="'Segoe UI',Arial,sans-serif" text-anchor="start" font-weight="normal">OGN Gliders</text>
<text x="250" y="182" fill="#94a3b8" font-size="10" font-family="'Segoe UI',Arial,sans-serif" text-anchor="end" font-weight="normal">19</text>
<rect x="12" y="198" width="248" height="28" fill="#1e293b" rx="4"/>
<circle cx="26" cy="212" r="5" fill="#14b8a6"/>
<rect x="224" y="204" width="16" height="16" fill="none" rx="3" stroke="#38bdf8" stroke-width="1.5"/>
<text x="226" y="216" fill="#38bdf8" font-size="11" font-family="'Segoe UI',Arial,sans-serif" text-anchor="start" font-weight="bold">✓</text>
<text x="36" y="216" fill="#e2e8f0" font-size="11" font-family="'Segoe UI',Arial,sans-serif" text-anchor="start" font-weight="normal">Ships / AIS</text>
<text x="250" y="216" fill="#94a3b8" font-size="10" font-family="'Segoe UI',Arial,sans-serif" text-anchor="end" font-weight="normal">24</text>
<rect x="12" y="232" width="248" height="28" fill="#1e293b" rx="4"/>
<circle cx="26" cy="246" r="5" fill="#a855f7"/>
<rect x="224" y="238" width="16" height="16" fill="none" rx="3" stroke="#38bdf8" stroke-width="1.5"/>
<text x="226" y="250" fill="#38bdf8" font-size="11" font-family="'Segoe UI',Arial,sans-serif" text-anchor="start" font-weight="bold">✓</text>
<text x="36" y="250" fill="#e2e8f0" font-size="11" font-family="'Segoe UI',Arial,sans-serif" text-anchor="start" font-weight="normal">LoRa</text>
<text x="250" y="250" fill="#94a3b8" font-size="10" font-family="'Segoe UI',Arial,sans-serif" text-anchor="end" font-weight="normal">67</text>
<rect x="12" y="266" width="248" height="28" fill="#1e293b" rx="4"/>
<circle cx="26" cy="280" r="5" fill="#374151"/>
<rect x="224" y="272" width="16" height="16" fill="none" rx="3" stroke="#374151" stroke-width="1.5"/>
<text x="36" y="284" fill="#94a3b8" font-size="11" font-family="'Segoe UI',Arial,sans-serif" text-anchor="start" font-weight="normal">MMDVM / DMR</text>
<text x="250" y="284" fill="#94a3b8" font-size="10" font-family="'Segoe UI',Arial,sans-serif" text-anchor="end" font-weight="normal">0</text>
<rect x="12" y="300" width="248" height="28" fill="#1e293b" rx="4"/>
<circle cx="26" cy="314" r="5" fill="#94a3b8"/>
<rect x="224" y="306" width="16" height="16" fill="none" rx="3" stroke="#38bdf8" stroke-width="1.5"/>
<text x="226" y="318" fill="#38bdf8" font-size="11" font-family="'Segoe UI',Arial,sans-serif" text-anchor="start" font-weight="bold">✓</text>
<text x="36" y="318" fill="#e2e8f0" font-size="11" font-family="'Segoe UI',Arial,sans-serif" text-anchor="start" font-weight="normal">Objects</text>
<text x="250" y="318" fill="#94a3b8" font-size="10" font-family="'Segoe UI',Arial,sans-serif" text-anchor="end" font-weight="normal">11</text>
<rect x="12" y="344" width="248" height="28" fill="#1e293b" rx="4"/>
<text x="26" y="362" fill="#94a3b8" font-size="11" font-family="'Segoe UI',Arial,sans-serif" text-anchor="start" font-weight="normal">Hide MMDVM/Pi-Star</text>
<rect x="224" y="350" width="30" height="16" fill="#374151" rx="8"/>
<circle cx="239" cy="358" r="6" fill="#6b7280"/>
<rect x="12" y="384" width="248" height="1" fill="#334155" rx="0"/>
<text x="14" y="406" fill="#e2e8f0" font-size="13" font-family="'Segoe UI',Arial,sans-serif" text-anchor="start" font-weight="600">Map Style</text>
<rect x="12" y="414" width="82" height="24" fill="#38bdf8" rx="4"/>
<text x="53" y="431" fill="#0f172a" font-size="10" font-family="'Segoe UI',Arial,sans-serif" text-anchor="middle" font-weight="normal">Standard</text>
<rect x="100" y="414" width="82" height="24" fill="#1e293b" rx="4"/>
<text x="141" y="431" fill="#94a3b8" font-size="10" font-family="'Segoe UI',Arial,sans-serif" text-anchor="middle" font-weight="normal">Satellite</text>
<rect x="188" y="414" width="82" height="24" fill="#1e293b" rx="4"/>
<text x="229" y="431" fill="#94a3b8" font-size="10" font-family="'Segoe UI',Arial,sans-serif" text-anchor="middle" font-weight="normal">Terrain</text>
<rect x="12" y="452" width="248" height="46" fill="#1e293b" rx="6"/>
<text x="26" y="470" fill="#e2e8f0" font-size="11" font-family="'Segoe UI',Arial,sans-serif" text-anchor="start" font-weight="600">📍 My Location</text>
<text x="26" y="488" fill="#38bdf8" font-size="10" font-family="'Segoe UI',Arial,sans-serif" text-anchor="start" font-weight="normal">53.6834° N,  1.5034° W</text>
<rect x="273" y="49" width="927" height="631" fill="url(#mg)" rx="0"/>
<line x1="333" y1="49" x2="333" y2="680" stroke="#1e3560" stroke-width="0.5" opacity="0.4"/>
<line x1="413" y1="49" x2="413" y2="680" stroke="#1e3560" stroke-width="0.5" opacity="0.4"/>
<line x1="493" y1="49" x2="493" y2="680" stroke="#1e3560" stroke-width="0.5" opacity="0.4"/>
<line x1="573" y1="49" x2="573" y2="680" stroke="#1e3560" stroke-width="0.5" opacity="0.4"/>
<line x1="653" y1="49" x2="653" y2="680" stroke="#1e3560" stroke-width="0.5" opacity="0.4"/>
<line x1="733" y1="49" x2="733" y2="680" stroke="#1e3560" stroke-width="0.5" opacity="0.4"/>
<line x1="813" y1="49" x2="813" y2="680" stroke="#1e3560" stroke-width="0.5" opacity="0.4"/>
<line x1="893" y1="49" x2="893" y2="680" stroke="#1e3560" stroke-width="0.5" opacity="0.4"/>
<line x1="973" y1="49" x2="973" y2="680" stroke="#1e3560" stroke-width="0.5" opacity="0.4"/>
<line x1="1053" y1="49" x2="1053" y2="680" stroke="#1e3560" stroke-width="0.5" opacity="0.4"/>
<line x1="1133" y1="49" x2="1133" y2="680" stroke="#1e3560" stroke-width="0.5" opacity="0.4"/>
<line x1="273" y1="99" x2="1200" y2="99" stroke="#1e3560" stroke-width="0.5" opacity="0.4"/>
<line x1="273" y1="159" x2="1200" y2="159" stroke="#1e3560" stroke-width="0.5" opacity="0.4"/>
<line x1="273" y1="219" x2="1200" y2="219" stroke="#1e3560" stroke-width="0.5" opacity="0.4"/>
<line x1="273" y1="279" x2="1200" y2="279" stroke="#1e3560" stroke-width="0.5" opacity="0.4"/>
<line x1="273" y1="339" x2="1200" y2="339" stroke="#1e3560" stroke-width="0.5" opacity="0.4"/>
<line x1="273" y1="399" x2="1200" y2="399" stroke="#1e3560" stroke-width="0.5" opacity="0.4"/>
<line x1="273" y1="459" x2="1200" y2="459" stroke="#1e3560" stroke-width="0.5" opacity="0.4"/>
<line x1="273" y1="519" x2="1200" y2="519" stroke="#1e3560" stroke-width="0.5" opacity="0.4"/>
<line x1="273" y1="579" x2="1200" y2="579" stroke="#1e3560" stroke-width="0.5" opacity="0.4"/>
<line x1="273" y1="639" x2="1200" y2="639" stroke="#1e3560" stroke-width="0.5" opacity="0.4"/>
<line x1="473" y1="49" x2="473" y2="680" stroke="#263d6a" stroke-width="2" opacity="0.6"/>
<line x1="793" y1="49" x2="793" y2="680" stroke="#263d6a" stroke-width="2" opacity="0.6"/>
<line x1="273" y1="209" x2="1200" y2="209" stroke="#263d6a" stroke-width="2" opacity="0.6"/>
<line x1="273" y1="429" x2="1200" y2="429" stroke="#263d6a" stroke-width="2" opacity="0.6"/>
<polygon points="593,249 753,229 833,299 763,389 593,409" fill="#0e1e35" opacity="0.8"/>
<circle cx="383" cy="169" r="8" fill="#3b82f6" opacity="0.85" stroke="white" stroke-width="0.8"/>
<circle cx="518" cy="144" r="8" fill="#3b82f6" opacity="0.85" stroke="white" stroke-width="0.8"/>
<circle cx="623" cy="189" r="8" fill="#a855f7" opacity="0.85" stroke="white" stroke-width="0.8"/>
<circle cx="703" cy="329" r="8" fill="#3b82f6" opacity="0.85" stroke="white" stroke-width="0.8"/>
<circle cx="448" cy="369" r="8" fill="#22c55e" opacity="0.85" stroke="white" stroke-width="0.8"/>
<circle cx="853" cy="179" r="8" fill="#ef4444" opacity="0.85" stroke="white" stroke-width="0.8"/>
<circle cx="913" cy="349" r="8" fill="#3b82f6" opacity="0.85" stroke="white" stroke-width="0.8"/>
<circle cx="553" cy="489" r="8" fill="#f97316" opacity="0.85" stroke="white" stroke-width="0.8"/>
<circle cx="773" cy="459" r="8" fill="#14b8a6" opacity="0.85" stroke="white" stroke-width="0.8"/>
<circle cx="993" cy="249" r="8" fill="#3b82f6" opacity="0.85" stroke="white" stroke-width="0.8"/>
<circle cx="423" cy="269" r="8" fill="#a855f7" opacity="0.85" stroke="white" stroke-width="0.8"/>
<circle cx="673" cy="429" r="8" fill="#3b82f6" opacity="0.85" stroke="white" stroke-width="0.8"/>
<circle cx="953" cy="139" r="8" fill="#22c55e" opacity="0.85" stroke="white" stroke-width="0.8"/>
<circle cx="1093" cy="319" r="8" fill="#3b82f6" opacity="0.85" stroke="white" stroke-width="0.8"/>
<circle cx="1033" cy="449" r="8" fill="#14b8a6" opacity="0.85" stroke="white" stroke-width="0.8"/>
<circle cx="333" cy="479" r="8" fill="#3b82f6" opacity="0.85" stroke="white" stroke-width="0.8"/>
<circle cx="1173" cy="199" r="8" fill="#a855f7" opacity="0.85" stroke="white" stroke-width="0.8"/>
<circle cx="623" cy="329" r="16" fill="#38bdf8" opacity="0.15"/>
<circle cx="623" cy="329" r="8" fill="#38bdf8" stroke="white" stroke-width="1.5"/>
<text x="635" y="333" fill="#e2e8f0" font-size="10" font-family="'Segoe UI',Arial,sans-serif" text-anchor="start" font-weight="bold">2E0LXY ◀</text>
<rect x="521" y="109" width="170" height="90" fill="#1e293b" rx="8" stroke="#334155" stroke-width="1"/>
<rect x="521" y="109" width="170" height="22" fill="#1e3a5f" rx="8"/>
<rect x="521" y="123" width="170" height="8" fill="#1e3a5f" rx="0"/>
<text x="531" y="125" fill="#38bdf8" font-size="12" font-family="'Segoe UI',Arial,sans-serif" text-anchor="start" font-weight="bold">M0TGN-9</text>
<text x="681" y="125" fill="#94a3b8" font-size="11" font-family="'Segoe UI',Arial,sans-serif" text-anchor="end" font-weight="normal">✕</text>
<text x="531" y="145" fill="#94a3b8" font-size="10" font-family="'Segoe UI',Arial,sans-serif" text-anchor="start" font-weight="normal">Type:</text>
<text x="681" y="145" fill="#e2e8f0" font-size="10" font-family="'Segoe UI',Arial,sans-serif" text-anchor="end" font-weight="normal">Ham APRS</text>
<text x="531" y="161" fill="#94a3b8" font-size="10" font-family="'Segoe UI',Arial,sans-serif" text-anchor="start" font-weight="normal">Grid:</text>
<text x="681" y="161" fill="#e2e8f0" font-size="10" font-family="'Segoe UI',Arial,sans-serif" text-anchor="end" font-weight="normal">IO93gn</text>
<text x="531" y="177" fill="#94a3b8" font-size="10" font-family="'Segoe UI',Arial,sans-serif" text-anchor="start" font-weight="normal">Distance:</text>
<text x="681" y="177" fill="#4ade80" font-size="10" font-family="'Segoe UI',Arial,sans-serif" text-anchor="end" font-weight="normal">12.4 km</text>
<text x="531" y="193" fill="#94a3b8" font-size="10" font-family="'Segoe UI',Arial,sans-serif" text-anchor="start" font-weight="normal">Last heard:</text>
<text x="681" y="193" fill="#e2e8f0" font-size="10" font-family="'Segoe UI',Arial,sans-serif" text-anchor="end" font-weight="normal">2 min ago</text>
<line x1="1070" y1="660" x2="1170" y2="660" stroke="#94a3b8" stroke-width="1.5" opacity="1.0"/>
<line x1="1070" y1="664" x2="1070" y2="656" stroke="#94a3b8" stroke-width="1.5" opacity="1.0"/>
<line x1="1170" y1="664" x2="1170" y2="656" stroke="#94a3b8" stroke-width="1.5" opacity="1.0"/>
<text x="1120" y="654" fill="#94a3b8" font-size="10" font-family="'Segoe UI',Arial,sans-serif" text-anchor="middle" font-weight="normal">50 km</text>
<circle cx="1165" cy="84" r="20" fill="#1e293b" opacity="0.85"/>
<text x="1165" y="78" fill="#e2e8f0" font-size="10" font-family="'Segoe UI',Arial,sans-serif" text-anchor="middle" font-weight="bold">N</text>
<text x="1165" y="98" fill="#94a3b8" font-size="9" font-family="'Segoe UI',Arial,sans-serif" text-anchor="middle" font-weight="normal">S</text>
<text x="1179" y="88" fill="#94a3b8" font-size="9" font-family="'Segoe UI',Arial,sans-serif" text-anchor="middle" font-weight="normal">E</text>
<text x="1151" y="88" fill="#94a3b8" font-size="9" font-family="'Segoe UI',Arial,sans-serif" text-anchor="middle" font-weight="normal">W</text>
<line x1="623" y1="329" x2="383" y2="169" stroke="#4ade80" stroke-width="1" stroke-dasharray="4,3" opacity="0.4"/>
<line x1="623" y1="329" x2="703" y2="329" stroke="#38bdf8" stroke-width="1" stroke-dasharray="4,3" opacity="0.4"/>
</svg>